<?xml version="1.0" standalone="no"?>
<!DOCTYPE svg PUBLIC "-//W3C//DTD SVG 20010904//EN"
 "http://www.w3.org/TR/2001/REC-SVG-20010904/DTD/svg10.dtd">
<svg version="1.0" xmlns="http://www.w3.org/2000/svg"
 width="792.000000pt" height="133.000000pt" viewBox="0 0 792.000000 133.000000"
 preserveAspectRatio="xMidYMid meet">

<g transform="translate(0.000000,133.000000) scale(0.100000,-0.100000)"
fill="#000000" stroke="none">
<path d="M3830 1319 c-1155 -61 -2133 -281 -2908 -655 -218 -105 -317 -161
-515 -291 -152 -100 -407 -296 -407 -312 0 -5 51 -11 113 -15 978 -55 2803
-63 3862 -16 2143 95 3478 368 3871 793 54 58 82 102 72 112 -7 8 -343 82
-568 125 -687 133 -1464 225 -2200 260 -247 11 -1091 11 -1320 -1z"/>
</g>
</svg>
